<?xml version="1.0" encoding="UTF-8" standalone="yes"?>
<svg xmlns="http://www.w3.org/2000/svg" xmlns:xlink="http://www.w3.org/1999/xlink" width="763.700px" height="233.716px" version="1.1" viewBox="-225.397 487.931 763.700 233.716">
  <!--
	Exported with Concepts: Smarter Sketching
	Version: 2025.7.5 on Microsoft Windows NT 10.0.26100.0
	https://concepts.app/
	-->
  <title>Desenho 3</title>
  <desc>Drawing exported from Concepts: Smarter Sketching</desc>
  <defs></defs>
  <g id="Aguarela" opacity="1.000">
    <path id="STROKE_6015dad5-643d-4a7a-8ef0-c64ac95c2c1c" opacity="1.000" fill="none" stroke="#ffd184" stroke-width="68.000" stroke-opacity="1.000" stroke-linecap="round" stroke-linejoin="round" d="M 144.059 539.606 Q 142.082 540.724 139.857 540.777 Q 137.632 540.830 135.732 541.133 Q 133.831 541.436 132.766 541.985 Q 131.701 542.534 128.742 542.247 Q 125.783 541.960 123.675 542.387 Q 121.566 542.813 120.240 543.298 Q 118.914 543.783 117.678 543.717 Q 116.441 543.651 115.342 543.690 Q 114.243 543.730 111.463 543.499 Q 108.682 543.269 104.796 544.129 Q 100.909 544.990 98.426 545.660 Q 95.943 546.331 94.176 546.265 Q 92.409 546.198 91.934 546.208 Q 91.459 546.218 90.175 546.695 Q 88.890 547.173 88.018 547.415 Q 87.146 547.656 86.271 547.632 Q 85.397 547.608 84.719 547.523 Q 84.041 547.438 82.339 548.228 Q 80.636 549.019 74.164 548.858 Q 67.691 548.697 62.307 549.195 Q 56.923 549.693 51.691 550.235 Q 46.460 550.776 43.542 551.222 Q 40.624 551.668 38.363 551.579 Q 36.102 551.490 36.235 551.487 Q 36.368 551.485 34.482 552.070 Q 32.597 552.656 30.342 552.776 Q 28.086 552.897 26.165 552.946 Q 24.243 552.995 22.456 553.654 Q 20.669 554.312 19.907 554.271 Q 19.145 554.229 18.737 554.076 Q 18.329 553.923 13.709 554.818 Q 9.089 555.713 4.978 555.576 Q 0.866 555.439 -1.212 555.417 Q -3.290 555.395 -4.646 556.224 Q -6.002 557.053 -8.341 556.911 Q -7.665 557.607 0.776 555.780 Q 9.217 553.953 14.400 552.811 Q 19.582 551.669 22.287 551.631 Q 24.991 551.593 27.328 551.582 Q 29.664 551.570 33.950 550.674 Q 38.236 549.777 44.468 549.273 Q 50.700 548.768 54.339 548.320 Q 57.978 547.873 63.932 547.568 Q 69.885 547.264 78.125 546.486 Q 86.364 545.708 91.583 545.225 Q 96.802 544.741 100.272 544.982 Q 103.743 545.223 107.606 544.451 Q 111.468 543.679 117.797 543.777 Q 124.127 543.875 130.144 543.039 Q 136.161 542.202 145.167 542.230 Q 154.172 542.259 159.046 542.284 Q 163.920 542.310 167.471 542.425 Q 171.022 542.540 177.856 541.746 Q 184.689 540.952 189.389 540.953 Q 194.089 540.954 197.486 540.962 Q 200.882 540.969 202.717 540.966 Q 204.552 540.962 211.480 540.964 Q 218.408 540.965 222.287 540.964 Q 226.167 540.964 228.750 540.964 Q 231.333 540.964 233.594 540.964 Q 235.855 540.964 241.353 540.964 Q 246.852 540.964 250.974 540.964 Q 255.096 540.964 259.981 540.964 Q 264.867 540.964 271.742 540.964 Q 278.617 540.964 283.057 540.964 Q 287.497 540.964 295.642 540.964 Q 303.786 540.964 309.920 540.964 Q 316.055 540.964 319.807 540.989 Q 323.559 541.013 325.870 540.866 Q 328.181 540.719 331.277 541.374 Q 334.373 542.030 338.185 542.229 Q 341.997 542.429 344.409 542.268 Q 346.822 542.107 349.465 542.328 Q 352.109 542.550 357.546 543.174 Q 362.984 543.799 365.300 543.933 Q 367.617 544.067 371.997 544.624 Q 376.378 545.181 380.217 545.679 Q 384.056 546.178 387.420 546.641 Q 390.783 547.104 393.774 547.504 Q 396.765 547.904 399.172 548.399 Q 401.579 548.894 403.658 549.214 Q 405.737 549.533 406.828 549.958 Q 407.918 550.383 409.912 550.313 Q 411.906 550.243 413.329 550.192 Q 414.753 550.141 418.275 552.258 Q 417.970 553.071 415.827 552.807 Q 413.684 552.544 411.042 553.922 Q 408.401 555.301 405.679 555.446 Q 402.956 555.591 400.293 555.994 Q 397.630 556.398 395.997 556.768 Q 394.364 557.139 392.440 556.947 Q 390.517 556.755 389.487 557.007 Q 388.457 557.259 387.099 557.870 Q 385.741 558.482 379.713 558.224 Q 373.685 557.966 366.367 558.565 Q 359.049 559.164 355.401 559.454 Q 351.753 559.744 345.641 559.628 Q 339.529 559.512 334.343 559.608 Q 329.157 559.705 320.434 559.571 Q 311.712 559.436 305.289 559.448 Q 298.867 559.459 295.485 559.865 Q 292.103 560.271 290.309 560.654 Q 288.515 561.036 282.266 560.969 Q 276.017 560.903 271.426 560.925 Q 266.834 560.948 261.862 560.939 Q 256.889 560.931 253.680 560.934 Q 250.472 560.937 247.154 560.936 Q 243.836 560.935 239.601 560.935 Q 235.367 560.936 229.823 560.936 Q 224.279 560.936 218.546 560.926 Q 212.814 560.916 208.776 560.842 Q 204.739 560.768 198.845 561.416 Q 192.952 562.065 189.520 562.184 Q 186.087 562.304 184.090 562.294 Q 182.093 562.284 177.160 562.303 Q 172.228 562.321 164.041 562.188 Q 155.855 562.055 149.759 562.366 Q 143.664 562.677 140.509 563.183 Q 137.354 563.689 129.218 563.597 Q 121.081 563.505 116.418 563.591 Q 111.756 563.677 107.058 563.497 Q 102.360 563.317 97.313 563.638 Q 92.265 563.958 88.285 564.586 Q 84.305 565.213 79.084 564.912 Q 73.863 564.612 69.243 565.108 Q 64.623 565.605 55.348 566.414 Q 46.072 567.224 40.468 567.476 Q 34.864 567.728 32.606 567.583 Q 30.348 567.437 26.093 567.939 Q 21.837 568.441 18.907 568.740 Q 15.976 569.039 11.767 568.848 Q 7.558 568.657 -0.084 569.477 Q -7.726 570.298 -12.614 570.758 Q -17.503 571.219 -20.740 571.346 Q -23.977 571.474 -28.482 571.926 Q -32.988 572.377 -38.349 572.948 Q -43.710 573.519 -48.593 573.922 Q -53.476 574.325 -56.789 574.259 Q -60.102 574.193 -62.997 574.090 Q -65.893 573.987 -72.223 574.734 Q -78.554 575.481 -83.922 575.929 Q -89.290 576.377 -91.658 576.716 Q -94.027 577.055 -98.192 576.936 Q -102.357 576.817 -105.296 576.858 Q -108.234 576.898 -109.459 576.859 Q -110.685 576.821 -113.837 576.742 Q -116.988 576.663 -122.247 577.579 Q -127.507 578.495 -132.282 578.229 Q -137.056 577.964 -139.594 578.309 Q -142.131 578.654 -153.422 579.549 Q -153.275 579.549 -145.916 579.549 Q -138.556 579.549 -124.231 579.549 Q -109.906 579.549 -102.196 579.551 Q -94.485 579.554 -90.048 579.566 Q -85.611 579.579 -80.514 579.573 Q -75.417 579.567 -72.898 579.455 Q -70.379 579.343 -66.116 579.919 Q -61.853 580.496 -55.215 581.081 Q -48.576 581.666 -45.055 582.002 Q -41.533 582.338 -38.301 582.263 Q -35.069 582.188 -31.867 582.118 Q -28.666 582.048 -20.857 582.922 Q -13.048 583.796 -6.503 584.275 Q 0.041 584.754 4.973 585.007 Q 9.905 585.259 16.257 586.033 Q 22.609 586.807 28.232 587.115 Q 33.854 587.423 38.870 587.968 Q 43.886 588.513 53.863 589.231 Q 63.841 589.950 68.724 590.061 Q 73.608 590.171 75.790 590.400 Q 77.972 590.628 82.199 591.502 Q 86.427 592.375 91.092 592.620 Q 95.758 592.865 98.954 592.789 Q 102.150 592.713 111.306 594.080 Q 120.461 595.448 127.208 596.187 Q 133.954 596.926 138.487 596.956 Q 143.020 596.986 146.768 597.499 Q 150.516 598.012 157.221 598.589 Q 163.927 599.165 167.977 599.323 Q 172.028 599.481 178.392 599.940 Q 184.756 600.399 194.837 601.252 Q 204.918 602.106 212.142 602.873 Q 219.366 603.641 223.082 604.304 Q 226.798 604.966 232.568 604.973 Q 238.337 604.979 241.882 605.391 Q 245.427 605.803 249.099 605.887 Q 252.770 605.970 258.032 606.720 Q 263.294 607.469 266.480 608.049 Q 269.667 608.628 273.060 608.775 Q 276.454 608.921 279.548 608.747 Q 282.643 608.573 289.192 609.470 Q 295.741 610.366 302.601 611.265 Q 309.461 612.164 313.467 612.523 Q 317.474 612.882 319.186 612.997 Q 320.899 613.113 325.319 613.722 Q 329.740 614.332 333.993 615.122 Q 338.247 615.912 342.364 617.479 Q 342.299 620.092 337.695 620.935 Q 333.090 621.779 331.060 621.920 Q 329.031 622.061 325.233 622.859 Q 321.436 623.658 318.793 623.517 Q 316.149 623.376 314.446 623.424 Q 312.742 623.471 312.503 623.481 Q 312.264 623.491 310.637 623.989 Q 309.011 624.486 304.052 624.646 Q 299.094 624.806 295.909 624.893 Q 292.725 624.981 289.773 625.677 Q 286.821 626.373 281.263 626.073 Q 275.704 625.773 269.875 626.577 Q 264.046 627.381 260.836 627.444 Q 257.627 627.507 255.625 627.389 Q 253.622 627.272 242.089 628.141 Q 230.556 629.009 223.768 629.508 Q 216.981 630.007 213.959 630.536 Q 210.937 631.064 208.564 631.254 Q 206.192 631.445 203.439 631.580 Q 200.686 631.715 195.240 632.231 Q 189.794 632.747 185.727 632.804 Q 181.660 632.862 178.443 633.522 Q 175.227 634.181 169.604 634.586 Q 163.982 634.990 159.103 635.218 Q 154.224 635.447 151.224 635.515 Q 148.223 635.583 146.671 636.168 Q 145.120 636.754 142.626 636.578 Q 140.132 636.402 132.676 637.246 Q 125.221 638.091 119.657 638.899 Q 114.093 639.707 110.100 639.424 Q 106.106 639.142 99.868 640.008 Q 93.629 640.874 89.673 641.343 Q 85.718 641.811 80.679 642.047 Q 75.639 642.283 70.699 642.925 Q 65.758 643.568 63.502 643.410 Q 61.247 643.252 57.837 644.098 Q 54.428 644.945 49.823 644.824 Q 45.217 644.702 36.177 644.731 Q 27.136 644.760 22.841 644.749 Q 18.546 644.739 12.038 644.743 Q 5.530 644.747 1.693 644.745 Q -2.144 644.744 -6.200 644.744 Q -10.256 644.745 -14.175 644.706 Q -18.093 644.666 -23.050 644.852 Q -28.007 645.038 -32.966 644.091 Q -32.624 643.134 -28.348 642.660 Q -24.071 642.186 -19.590 641.485 Q -15.110 640.783 -12.091 640.769 Q -9.073 640.755 -7.123 640.766 Q -5.173 640.777 -4.268 640.703 Q -3.362 640.630 -2.034 640.806 Q -0.705 640.982 3.966 640.898 Q 8.637 640.814 11.385 640.125 Q 14.133 639.436 16.816 639.445 Q 19.498 639.454 20.470 639.461 Q 21.441 639.467 28.575 639.464 Q 35.708 639.461 40.282 639.462 Q 44.856 639.463 47.764 639.463 Q 50.672 639.462 58.546 639.462 Q 66.420 639.463 73.983 639.462 Q 81.546 639.462 86.101 639.462 Q 90.656 639.462 93.413 639.462 Q 96.171 639.462 103.799 639.462 Q 111.426 639.462 118.723 639.462 Q 126.021 639.462 129.494 639.462 Q 132.968 639.462 144.229 639.462 Q 155.491 639.462 162.171 639.462 Q 168.852 639.462 171.832 639.462 Q 174.813 639.462 182.086 639.462 Q 189.359 639.462 192.902 639.462 Q 196.445 639.462 199.612 639.462 Q 202.779 639.462 208.246 639.462 Q 213.714 639.462 217.462 639.462 Q 221.210 639.462 223.386 639.462 Q 225.562 639.462 228.724 639.462 Q 231.885 639.462 238.396 639.505 Q 244.907 639.548 248.623 639.407 Q 252.338 639.266 255.799 639.450 Q 259.260 639.635 261.960 640.295 Q 264.659 640.956 269.478 640.679 Q 274.297 640.402 281.931 641.226 Q 289.565 642.049 294.195 642.607 Q 298.826 643.164 301.242 643.348 Q 303.658 643.532 308.568 644.046 Q 313.478 644.560 319.301 645.156 Q 325.123 645.752 328.395 646.492 Q 331.666 647.233 332.674 647.262 Q 333.683 647.292 336.821 647.514 Q 339.959 647.736 343.230 648.720 Q 346.501 649.704 355.695 650.756 Q 355.482 652.470 353.178 652.589 Q 350.874 652.708 348.585 653.529 Q 346.296 654.349 345.032 654.232 Q 343.769 654.115 341.675 654.897 Q 339.582 655.679 336.744 655.358 Q 333.907 655.037 330.247 655.928 Q 326.588 656.819 318.444 656.794 Q 310.300 656.770 305.179 656.768 Q 300.057 656.766 297.342 656.767 Q 294.626 656.768 292.022 656.768 Q 289.418 656.767 286.692 656.767 Q 283.966 656.768 276.655 656.768 Q 269.344 656.767 263.284 656.768 Q 257.223 656.768 251.965 656.768 Q 246.706 656.768 240.963 656.768 Q 235.220 656.768 230.700 656.768 Q 226.181 656.768 222.075 656.768 Q 217.969 656.768 214.402 656.768 Q 210.834 656.768 208.311 656.768 Q 205.788 656.768 199.520 656.812 Q 193.252 656.857 190.028 656.719 Q 186.804 656.581 180.617 656.795 Q 174.430 657.009 167.896 657.594 Q 161.362 658.180 158.314 658.160 Q 155.267 658.140 151.341 658.055 Q 147.414 657.971 143.360 658.032 Q 139.305 658.093 136.383 658.725 Q 133.461 659.356 129.438 660.063 Q 125.415 660.770 120.126 660.781 Q 114.836 660.793 109.813 660.678 Q 104.791 660.563 99.956 660.762 Q 95.122 660.961 88.861 661.617 Q 82.601 662.272 78.234 662.020 Q 73.868 661.769 69.800 662.524 Q 65.733 663.280 60.674 663.318 Q 55.615 663.355 50.526 664.137 Q 45.438 664.919 41.507 664.742 Q 37.577 664.564 35.117 664.634 Q 32.656 664.704 30.594 665.324 Q 28.531 665.944 20.870 666.021 Q 13.210 666.099 8.976 665.958 Q 4.742 665.817 1.233 666.409 Q -2.275 667.001 -6.785 667.254 Q -11.296 667.506 -15.830 667.448 Q -20.364 667.389 -26.002 667.258 Q -31.640 667.127 -41.098 667.702 Q -50.557 668.278 -54.891 668.597 Q -59.226 668.915 -61.886 668.794 Q -64.546 668.673 -68.714 668.720 Q -72.882 668.766 -76.549 668.748 Q -80.216 668.730 -85.539 668.737 Q -90.861 668.744 -97.431 668.741 Q -104.000 668.739 -108.754 668.740 Q -113.509 668.741 -116.479 668.740 Q -119.448 668.740 -121.408 668.700 Q -123.367 668.659 -127.271 668.852 Q -131.175 669.045 -135.438 668.061 Q -135.925 666.536 -134.558 666.358 Q -133.190 666.180 -129.222 664.437 Q -125.255 662.695 -122.190 661.674 Q -119.126 660.653 -116.756 660.805 Q -114.386 660.958 -110.928 660.408 Q -107.470 659.859 -105.623 659.588 Q -103.776 659.318 -102.509 659.334 Q -101.242 659.350 -99.989 659.035 Q -98.737 658.719 -97.436 658.337 Q -96.135 657.956 -92.894 658.124 Q -89.653 658.291 -82.685 657.540 Q -75.716 656.788 -72.159 656.458 Q -68.602 656.128 -66.269 655.633 Q -63.936 655.139 -61.649 655.278 Q -59.361 655.417 -52.411 655.464 Q -45.461 655.511 -41.952 655.490 Q -38.442 655.469 -35.172 654.749 Q -31.902 654.029 -29.666 654.073 Q -27.431 654.118 -22.771 654.107 Q -18.111 654.096 -15.362 654.102 Q -12.613 654.109 -10.888 654.095 Q -9.163 654.081 -8.090 654.314 Q -7.017 654.547 -1.735 653.434 Q 3.547 652.320 8.147 651.745 Q 12.748 651.169 16.976 651.406 Q 21.204 651.643 24.335 651.411 Q 27.466 651.179 33.120 650.595 Q 38.774 650.011 43.517 650.089 Q 48.260 650.168 54.286 649.374 Q 60.312 648.581 63.583 648.805 Q 66.853 649.029 73.112 648.426 Q 79.371 647.822 85.810 647.692 Q 92.249 647.563 99.366 646.941 Q 106.484 646.319 113.433 646.164 Q 120.383 646.008 124.050 646.144 Q 127.718 646.281 129.575 645.899 Q 131.432 645.517 139.412 645.179 Q 147.391 644.841 155.303 644.407 Q 163.215 643.974 168.737 643.608 Q 174.258 643.242 177.177 643.351 Q 180.095 643.461 186.395 643.487 Q 192.695 643.513 196.569 643.519 Q 200.443 643.525 205.521 642.668 Q 210.599 641.811 218.883 641.986 Q 227.167 642.162 231.472 642.104 Q 235.778 642.047 238.363 642.072 Q 240.949 642.096 244.590 642.169 Q 248.231 642.241 256.787 642.156 Q 265.343 642.072 269.730 642.153 Q 274.116 642.234 277.876 641.584 Q 281.635 640.934 284.145 640.831 Q 286.654 640.727 291.589 640.757 Q 296.523 640.786 306.393 640.775 Q 316.262 640.764 323.681 640.769 Q 331.100 640.773 334.645 640.771 Q 338.190 640.769 345.861 640.770 Q 353.532 640.771 360.627 640.770 Q 367.721 640.770 371.630 640.770 Q 375.539 640.770 377.474 640.770 Q 379.408 640.770 384.291 640.770 Q 389.174 640.770 397.141 640.770 Q 405.107 640.770 411.850 640.770 Q 418.593 640.770 422.138 640.773 Q 425.682 640.776 428.801 640.773 Q 431.919 640.771 434.458 640.913 Q 436.997 641.055 442.326 640.140 Q 447.656 639.225 458.846 639.462 Q 457.657 638.883 452.845 639.938 Q 448.032 640.994 443.455 642.088 Q 438.877 643.183 435.866 643.353 Q 432.855 643.524 431.867 643.386 Q 430.879 643.248 428.388 644.062 Q 425.898 644.875 424.190 644.795 Q 422.482 644.715 421.374 644.733 Q 420.266 644.750 418.799 644.746 Q 417.332 644.743 415.691 644.744 Q 414.051 644.745 412.384 644.745 Q 410.717 644.744 408.894 644.751 Q 407.071 644.757 404.190 644.733 Q 401.309 644.710 400.680 644.601 Q 400.051 644.492 396.478 645.341 Q 392.904 646.190 385.310 646.149 Q 377.715 646.107 373.898 646.105 Q 370.082 646.103 367.999 646.040 Q 365.917 645.977 362.842 646.585 Q 359.767 647.193 354.932 647.329 Q 350.098 647.465 347.491 647.509 Q 344.885 647.553 340.813 647.256 Q 336.740 646.959 331.211 647.857 Q 325.681 648.756 322.980 649.546 Q 320.278 650.337 316.040 650.162 Q 311.802 649.986 308.064 650.049 Q 304.325 650.111 300.168 650.087 Q 296.011 650.064 293.972 650.116 Q 291.933 650.168 287.220 650.009 Q 282.507 649.850 274.229 650.489 Q 265.951 651.127 261.127 651.296 Q 256.304 651.465 253.765 652.095 Q 251.227 652.725 249.303 653.297 Q 247.379 653.869 245.370 653.908 Q 243.361 653.948 236.974 654.651 Q 230.587 655.355 225.648 655.811 Q 220.710 656.266 214.789 656.598 Q 208.868 656.930 204.322 656.863 Q 199.776 656.796 196.954 656.693 Q 194.133 656.591 190.612 656.707 Q 187.091 656.824 184.598 657.519 Q 182.104 658.215 177.223 658.006 Q 172.343 657.798 168.800 658.244 Q 165.258 658.690 160.979 659.141 Q 156.701 659.592 151.378 659.449 Q 146.054 659.307 142.786 659.360 Q 139.518 659.413 135.724 659.403 Q 131.931 659.392 124.716 659.411 Q 117.502 659.430 111.974 659.272 Q 106.445 659.113 102.263 659.792 Q 98.080 660.471 94.778 660.645 Q 91.475 660.819 89.676 660.769 Q 87.877 660.719 87.021 660.734 Q 86.165 660.748 85.080 660.744 Q 83.995 660.739 84.658 660.741 Q 85.321 660.743 79.553 660.742 Q 73.786 660.741 67.412 660.741 Q 61.039 660.742 55.170 660.735 Q 49.301 660.729 45.757 660.706 Q 42.213 660.683 39.147 660.737 Q 36.080 660.792 34.468 660.812 Q 32.856 660.833 31.416 660.144 Q 29.976 659.455 26.203 659.553 Q 22.430 659.651 18.479 658.855 Q 14.528 658.059 10.810 658.061 Q 7.092 658.062 3.046 658.045 Q -1.000 658.029 -2.202 658.046 Q -3.404 658.064 -7.764 658.189 Q -12.125 658.315 -16.591 657.596 Q -21.057 656.878 -30.299 656.088 Q -30.719 653.785 -28.552 654.273 Q -26.386 654.761 -22.371 652.545 Q -18.356 650.329 -13.918 649.448 Q -9.480 648.568 -5.767 647.147 Q -2.054 645.726 1.406 644.338 Q 4.866 642.950 8.150 641.845 Q 11.435 640.739 14.289 639.866 Q 17.144 638.993 19.328 637.866 Q 21.513 636.738 22.906 636.145 Q 24.298 635.551 24.843 635.555 Q 25.387 635.559 26.161 635.414 Q 26.934 635.269 29.938 633.937 Q 32.942 632.605 35.672 631.391 Q 38.402 630.176 43.781 628.680 Q 49.160 627.184 54.646 625.169 Q 60.133 623.155 64.306 621.612 Q 68.480 620.069 74.495 617.945 Q 80.510 615.821 83.887 614.896 Q 87.264 613.972 90.382 612.360 Q 93.501 610.748 97.077 610.063 Q 100.654 609.378 102.176 609.073 Q 103.698 608.767 105.416 607.917 Q 107.133 607.068 110.564 606.256 Q 113.996 605.444 115.861 604.970 Q 117.726 604.496 118.972 603.704 Q 120.219 602.911 126.104 601.101 Q 131.989 599.292 137.310 597.529 Q 142.632 595.766 146.426 594.949 Q 150.221 594.131 152.453 594.193 Q 154.686 594.256 156.480 592.717 Q 158.274 591.178 161.379 590.225 Q 164.485 589.272 167.471 589.165 Q 170.457 589.058 174.898 588.392 Q 179.339 587.725 182.714 586.444 Q 186.090 585.163 188.494 584.662 Q 190.898 584.161 195.450 583.692 Q 200.003 583.224 203.969 582.166 Q 207.936 581.109 210.149 580.514 Q 212.362 579.920 213.963 579.728 Q 215.565 579.535 216.910 579.523 Q 218.255 579.511 219.345 579.205 Q 220.435 578.900 221.875 578.553 Q 223.314 578.206 228.022 577.478 Q 232.729 576.750 236.842 575.861 Q 240.955 574.972 243.156 574.542 Q 245.357 574.112 248.668 573.623 Q 251.979 573.133 253.936 573.052 Q 255.893 572.971 258.645 572.399 Q 261.397 571.826 265.594 571.162 Q 269.791 570.498 274.189 569.646 Q 278.587 568.794 283.167 568.959 Q 287.747 569.124 291.231 568.442 Q 294.716 567.760 297.900 567.738 Q 301.085 567.716 302.762 567.527 Q 304.439 567.337 305.599 566.694 Q 306.758 566.050 308.549 566.291 Q 310.339 566.532 313.614 565.857 Q 316.889 565.182 319.227 565.026 Q 321.566 564.870 322.669 564.906 Q 323.773 564.941 328.541 564.103 Q 333.308 563.265 337.098 562.744 Q 340.887 562.224 342.769 562.221 Q 344.650 562.219 346.655 561.424 Q 348.661 560.629 350.899 560.850 Q 353.138 561.070 354.769 560.942 Q 356.400 560.813 358.090 561.067 Q 359.780 561.320 362.335 559.577 "></path>
  </g>
  <g id="Caneta" opacity="1.000">
    <path id="STROKE_ce0967f6-e8c9-48a2-ae03-d3e88cb693a6" opacity="1.000" fill="none" stroke="#000000" stroke-width="20.000" stroke-opacity="1.000" stroke-linecap="round" stroke-linejoin="round" d="M -207.410 531.856 Q -206.717 531.597 -201.275 530.551 Q -195.833 529.505 -188.636 528.574 Q -181.440 527.642 -177.666 527.143 Q -173.892 526.644 -166.652 525.737 Q -159.412 524.829 -154.889 524.414 Q -150.366 524.000 -145.400 523.685 Q -140.434 523.370 -136.834 523.140 Q -133.233 522.909 -130.747 522.925 Q -128.260 522.941 -126.019 523.318 Q -123.778 523.694 -122.934 524.286 Q -122.089 524.878 -124.804 531.165 Q -127.518 537.452 -130.491 542.166 Q -133.463 546.880 -134.979 549.340 Q -136.495 551.800 -139.109 555.946 Q -141.723 560.092 -145.466 565.766 Q -149.209 571.439 -152.413 576.454 Q -155.617 581.468 -159.783 587.829 Q -163.949 594.190 -166.940 598.445 Q -169.931 602.699 -175.558 610.655 Q -181.185 618.612 -183.993 622.974 Q -186.800 627.336 -188.397 630.367 Q -189.994 633.397 -190.669 635.118 Q -191.344 636.840 -191.561 641.497 Q -191.530 641.677 -189.219 642.302 Q -186.908 642.927 -183.233 642.817 Q -179.559 642.707 -175.061 642.201 Q -170.564 641.696 -167.055 641.246 Q -163.547 640.797 -157.645 639.755 Q -151.743 638.714 -148.345 637.943 Q -144.946 637.172 -143.058 636.708 Q -141.170 636.244 -137.985 635.244 Q -134.801 634.244 -132.490 633.444 Q -130.178 632.644 -124.478 630.469 Q -118.777 628.294 -115.232 627.017 Q -111.687 625.739 -109.489 625.147 Q -107.290 624.554 -103.870 623.769 "></path>
    <path id="STROKE_e309e413-648d-4755-b985-5dc7aae02efb" opacity="1.000" fill="none" stroke="#000000" stroke-width="20.000" stroke-opacity="1.000" stroke-linecap="round" stroke-linejoin="round" d="M -77.783 559.563 Q -77.885 559.930 -78.007 560.412 Q -78.129 560.893 -78.227 561.919 Q -78.325 562.946 -78.178 565.101 Q -78.030 567.257 -77.032 574.643 Q -76.034 582.029 -74.428 593.284 Q -72.822 604.539 -71.961 610.052 Q -71.101 615.564 -70.275 618.943 Q -69.448 622.321 -68.650 624.353 L -67.776 625.967 "></path>
    <path id="STROKE_c8389f2c-6b5a-4013-ac6b-f25716198171" opacity="1.000" fill="none" stroke="#000000" stroke-width="20.000" stroke-opacity="1.000" stroke-linecap="round" stroke-linejoin="round" d="M -35.037 561.124 Q -34.665 561.997 -33.697 564.480 Q -32.729 566.964 -31.304 572.304 Q -29.879 577.644 -28.817 587.177 Q -27.754 596.710 -27.077 603.921 Q -26.399 611.133 -25.782 613.805 Q -25.680 613.687 -25.613 610.931 Q -25.547 608.175 -25.265 604.540 Q -24.984 600.906 -24.097 596.938 Q -23.211 592.970 -21.935 589.227 Q -20.659 585.483 -18.365 580.820 Q -16.071 576.156 -14.568 573.779 Q -13.065 571.401 -11.279 569.065 Q -9.494 566.728 -6.695 564.141 Q -3.896 561.553 -0.856 559.817 Q 2.183 558.082 5.559 557.287 Q 8.936 556.492 11.110 556.506 Q 13.285 556.521 14.628 556.803 Q 15.971 557.085 17.205 557.612 Q 18.440 558.138 19.556 559.014 Q 20.673 559.890 21.481 560.906 Q 22.289 561.921 22.995 563.437 Q 23.701 564.953 24.252 567.704 Q 24.804 570.456 24.757 574.036 Q 24.709 577.617 23.474 583.661 Q 22.239 589.705 21.080 593.576 Q 19.921 597.446 16.691 607.484 Q 13.460 617.521 11.542 623.847 Q 9.623 630.174 6.301 641.068 Q 2.978 651.962 0.388 660.634 Q -2.202 669.307 -3.496 675.073 Q -4.789 680.840 -4.929 685.108 Q -5.069 689.377 -4.602 691.490 Q -4.135 693.603 -3.422 694.745 Q -2.710 695.888 -1.592 696.577 Q -0.475 697.265 1.397 697.561 Q 3.269 697.856 10.251 694.870 Q 17.233 691.885 25.525 686.008 "></path>
    <path id="STROKE_6f80dddd-24a8-48f5-9b08-74bb7dff59bf" opacity="1.000" fill="none" stroke="#000000" stroke-width="20.000" stroke-opacity="1.000" stroke-linecap="round" stroke-linejoin="round" d="M 49.010 592.244 L 49.308 592.395 Q 49.750 592.531 55.015 593.667 Q 60.280 594.803 65.057 595.049 Q 69.834 595.295 72.627 595.142 Q 75.420 594.988 79.616 593.963 Q 83.813 592.938 88.359 590.187 Q 89.413 587.728 89.672 585.588 Q 89.932 583.447 89.514 580.999 Q 89.096 578.550 88.093 576.413 Q 87.089 574.275 85.776 572.725 Q 84.462 571.175 82.438 570.134 Q 80.413 569.094 78.582 568.752 Q 76.751 568.410 74.391 568.477 Q 72.032 568.544 68.365 569.847 Q 64.697 571.150 59.570 575.063 Q 54.444 578.976 51.288 582.612 Q 48.133 586.247 45.814 590.262 Q 43.494 594.278 42.386 597.462 Q 41.279 600.647 40.945 604.375 Q 40.611 608.103 40.906 610.530 Q 41.201 612.958 42.094 615.380 Q 42.987 617.802 43.945 619.491 Q 44.903 621.180 46.990 623.621 Q 49.076 626.062 50.974 627.563 Q 52.872 629.063 55.464 630.384 Q 58.057 631.704 61.043 632.357 Q 64.030 633.011 67.139 632.918 Q 70.247 632.826 74.456 631.602 Q 78.664 630.378 83.446 627.965 Q 88.228 625.552 90.784 624.139 Q 93.341 622.725 96.662 621.019 Q 99.984 619.313 106.390 616.481 "></path>
    <path id="STROKE_5c2df161-8a1b-48e5-a1f8-12e1e332616e" opacity="1.000" fill="none" stroke="#000000" stroke-width="20.000" stroke-opacity="1.000" stroke-linecap="round" stroke-linejoin="round" d="M 127.792 568.182 Q 127.967 568.397 128.195 568.451 Q 128.423 568.506 128.962 569.382 Q 129.502 570.257 130.356 572.465 Q 131.211 574.673 131.705 576.401 Q 132.199 578.129 133.135 582.568 Q 134.070 587.007 134.952 595.653 Q 135.835 604.298 136.157 609.697 Q 136.478 615.095 137.993 623.797 Q 138.186 623.659 138.913 621.371 Q 139.639 619.083 141.314 614.461 Q 142.989 609.838 144.673 606.417 Q 146.356 602.996 147.758 600.667 Q 149.159 598.337 152.335 594.407 Q 155.512 590.477 157.959 588.299 Q 160.407 586.122 162.726 584.574 Q 165.045 583.026 168.028 581.746 Q 171.010 580.466 175.281 579.172 "></path>
    <path id="STROKE_c42dadbe-5d07-4803-a0e4-d9cc1bc5b9dd" opacity="1.000" fill="none" stroke="#000000" stroke-width="20.000" stroke-opacity="1.000" stroke-linecap="round" stroke-linejoin="round" d="M 206.286 566.620 Q 206.404 567.141 206.532 578.382 Q 206.660 589.622 206.762 596.049 Q 206.864 602.476 207.072 605.214 Q 207.279 607.951 207.483 609.661 Q 207.686 611.372 207.857 612.309 Q 208.028 613.246 208.137 613.762 "></path>
    <path id="STROKE_06cede97-084d-4675-aa5a-7b6cdc00fbc2" opacity="1.000" fill="none" stroke="#000000" stroke-width="20.000" stroke-opacity="1.000" stroke-linecap="round" stroke-linejoin="round" d="M 248.627 556.382 Q 248.645 556.611 248.791 557.007 Q 248.921 557.236 249.730 560.165 Q 250.539 563.094 251.115 569.652 Q 251.691 576.210 251.658 589.273 Q 251.624 602.336 251.738 609.603 Q 251.826 609.639 252.379 605.635 Q 252.932 601.632 254.256 595.179 Q 255.579 588.727 257.273 583.965 Q 258.968 579.203 260.136 576.739 Q 261.303 574.275 264.083 569.716 Q 266.862 565.158 269.889 561.714 Q 272.916 558.270 275.854 556.077 Q 278.792 553.884 281.052 552.964 Q 283.313 552.044 284.972 551.843 Q 286.632 551.642 287.942 551.811 Q 289.253 551.980 290.512 552.730 Q 291.771 553.481 292.640 554.310 Q 293.508 555.140 294.579 557.136 Q 295.650 559.132 296.233 561.326 Q 296.817 563.520 297.108 568.618 Q 297.400 573.716 296.521 581.371 Q 295.642 589.026 294.576 594.766 Q 293.510 600.506 291.679 609.580 Q 289.848 618.654 288.571 624.875 Q 287.293 631.097 286.660 634.347 Q 286.028 637.597 285.488 642.570 Q 284.949 647.543 285.162 649.543 Q 285.376 651.542 285.640 652.167 Q 285.904 652.792 286.123 653.061 Q 286.342 653.330 286.964 653.651 Q 287.587 653.972 290.949 652.082 Q 294.312 650.192 299.240 645.518 "></path>
    <path id="STROKE_cb4c9940-e929-48da-a48d-0a7b89bec893" opacity="1.000" fill="none" stroke="#000000" stroke-width="20.000" stroke-opacity="1.000" stroke-linecap="round" stroke-linejoin="round" d="M 343.953 592.996 Q 344.562 592.962 351.624 593.144 Q 358.686 593.327 366.663 593.073 Q 374.641 592.819 381.725 589.475 Q 382.319 588.269 382.601 585.713 Q 382.882 583.157 381.694 579.803 Q 380.506 576.449 378.996 574.432 Q 377.486 572.414 375.991 571.145 Q 374.496 569.875 373.751 569.434 Q 373.006 568.993 372.451 568.685 Q 371.895 568.377 368.794 567.493 Q 365.693 566.608 362.075 566.585 Q 358.457 566.561 354.565 567.595 Q 350.674 568.629 347.490 570.317 Q 344.306 572.005 340.994 574.905 Q 337.682 577.806 335.322 581.098 Q 332.961 584.391 331.370 588.560 Q 329.780 592.730 329.387 596.415 Q 328.995 600.099 329.232 602.361 Q 329.470 604.622 330.309 607.241 Q 331.148 609.861 333.035 612.995 Q 334.922 616.130 338.484 619.521 Q 342.045 622.911 345.133 624.769 Q 348.221 626.626 350.848 627.665 Q 353.475 628.705 356.907 629.587 Q 360.339 630.469 364.565 630.713 Q 368.791 630.957 373.147 630.266 Q 377.504 629.574 378.161 629.396 Q 378.818 629.219 379.250 629.047 Q 379.683 628.875 382.303 627.760 "></path>
    <path id="STROKE_4a00a010-04aa-4ab9-89af-bcb7daaa6599" opacity="1.000" fill="none" stroke="#000000" stroke-width="20.000" stroke-opacity="1.000" stroke-linecap="round" stroke-linejoin="round" d="M 456.863 563.496 L 456.685 563.594 L 456.235 563.662 Q 455.103 564.023 454.128 564.372 Q 453.153 564.721 449.136 567.029 Q 445.118 569.338 442.767 571.128 Q 440.416 572.919 439.367 573.823 Q 438.319 574.728 436.160 577.065 Q 434.002 579.402 432.940 581.129 Q 431.877 582.855 431.430 584.334 Q 430.983 585.812 431.039 586.733 Q 431.096 587.654 431.292 588.269 Q 431.488 588.883 433.440 590.519 Q 435.391 592.154 437.942 593.153 Q 440.494 594.151 445.376 595.375 Q 450.258 596.600 455.589 598.020 Q 460.921 599.440 464.156 600.853 Q 467.390 602.267 469.425 603.781 Q 471.459 605.296 472.303 606.232 Q 473.147 607.169 473.677 607.928 Q 474.206 608.688 475.105 610.630 Q 476.004 612.573 476.307 614.933 Q 476.610 617.293 476.220 619.349 Q 475.830 621.405 473.964 624.610 Q 472.097 627.816 468.750 630.740 Q 465.403 633.665 461.293 635.681 Q 457.183 637.698 452.214 638.695 Q 447.246 639.692 443.698 639.716 Q 440.150 639.740 435.962 639.022 Q 431.773 638.304 429.092 637.354 Q 426.410 636.403 424.775 635.673 Q 423.139 634.943 420.711 633.602 "></path>
    <path id="STROKE_014a7e90-ef7b-4258-88ba-df80d28649e1" opacity="1.000" fill="none" stroke="#000000" stroke-width="20.000" stroke-opacity="1.000" stroke-linecap="round" stroke-linejoin="round" d="M 520.317 521.675 Q 520.219 522.533 520.089 523.914 Q 519.958 525.295 519.734 527.838 Q 519.511 530.381 519.133 534.561 Q 518.755 538.741 518.336 543.028 Q 517.917 547.315 516.972 559.167 Q 516.027 571.020 515.678 577.663 Q 515.329 584.307 515.157 588.129 Q 514.985 591.950 514.892 594.070 Q 514.798 596.191 514.301 602.598 "></path>
    <path id="STROKE_180ca27c-db26-4ddc-9cb0-94d19ee13eb2" opacity="1.000" fill="none" stroke="#000000" stroke-width="20.000" stroke-opacity="1.000" stroke-linecap="round" stroke-linejoin="round" d="M 512.103 655.467 Q 512.129 655.189 512.210 654.846 Q 512.290 654.504 512.601 653.878 Q 512.911 653.252 513.203 652.856 Q 513.495 652.460 513.809 652.120 Q 514.124 651.779 514.397 651.611 Q 514.669 651.443 514.932 651.491 Q 515.195 651.540 515.339 651.685 Q 515.483 651.831 515.541 652.009 Q 515.600 652.187 515.529 652.397 Q 515.458 652.607 515.275 652.637 Q 515.092 652.666 514.888 652.646 Q 514.685 652.626 514.335 652.353 Q 513.986 652.080 512.045 650.550 "></path>
    <path id="STROKE_106a9557-f982-479a-a0ce-f2d4e3f0ebae" opacity="1.000" fill="none" stroke="#000000" stroke-width="20.000" stroke-opacity="1.000" stroke-linecap="round" stroke-linejoin="round" d="M 201.832 515.197 Q 201.898 514.621 202.058 514.178 Q 202.218 513.734 202.387 513.473 Q 202.556 513.212 202.951 513.132 Q 203.345 513.052 203.470 513.076 Q 203.595 513.100 203.725 513.110 Q 203.854 513.121 204.041 513.436 Q 204.227 513.751 204.262 514.087 Q 204.298 514.423 204.252 514.708 Q 204.206 514.993 204.201 515.020 Q 204.197 515.047 204.040 515.250 Q 203.883 515.453 203.788 515.513 Q 203.692 515.574 203.461 515.589 Q 203.230 515.604 203.011 515.528 Q 202.791 515.451 202.724 515.333 Q 202.657 515.215 202.642 515.090 Q 202.626 514.964 202.592 514.894 Q 202.557 514.823 202.643 514.470 Q 202.730 514.116 202.825 513.950 Q 202.921 513.785 203.114 513.632 Q 203.307 513.480 203.749 513.290 Q 204.191 513.099 204.838 513.052 Q 205.486 513.004 205.850 513.128 Q 206.213 513.251 206.375 513.398 Q 206.537 513.545 206.577 513.542 Q 206.616 513.540 206.815 514.077 Q 207.014 514.614 206.965 515.131 Q 206.915 515.648 206.820 515.893 Q 206.724 516.138 206.731 516.190 Q 206.738 516.243 206.442 516.690 Q 206.147 517.138 205.933 517.392 Q 205.719 517.646 205.168 517.889 Q 204.617 518.131 204.169 518.159 Q 203.721 518.188 203.373 518.121 Q 203.024 518.053 202.419 517.604 Q 201.814 517.155 201.574 516.537 Q 201.334 515.919 201.460 515.358 Q 201.587 514.798 201.741 514.552 Q 201.895 514.307 202.227 514.045 Q 202.560 513.784 203.040 513.613 Q 203.520 513.442 204.042 513.469 Q 204.565 513.495 204.971 513.688 Q 205.377 513.882 205.583 514.095 Q 205.788 514.308 205.859 514.622 Q 205.931 514.936 205.842 515.214 Q 205.753 515.491 205.647 515.605 Q 205.542 515.718 205.125 515.794 Q 204.709 515.870 204.440 515.644 Q 204.171 515.417 204.118 515.189 Q 204.064 514.960 204.074 514.805 Q 204.084 514.649 204.214 514.479 Q 204.344 514.310 204.835 514.108 Q 205.325 513.907 205.734 513.876 Q 206.142 513.846 206.602 513.928 Q 207.062 514.010 207.161 514.070 Q 207.260 514.130 207.514 514.356 Q 207.768 514.581 207.945 514.911 Q 208.122 515.241 208.183 515.528 Q 208.243 515.814 208.889 516.932 "></path>
  </g>
</svg>